dataset
version=1
nRows=30
nColumns=39
inDegrees=no
endheader
time	sternoclavicular_r2	sternoclavicular_r3	unrotscap_r3	unrotscap_r2	acromioclavicular_r2	acromioclavicular_r3	acromioclavicular_r1	unrothum_r1	unrothum_r3	unrothum_r2	elv_angle	shoulder_elv	shoulder1_r2	shoulder_rot	elbow_flexion	pro_sup	deviation	flexion	cmc_abduction	cmc_flexion	mp_flexion	ip_flexion	mcp2_flexion	mcp2_abduction	pm2_flexion	md2_flexion	mcp3_flexion	mcp3_abduction	pm3_flexion	md3_flexion	mcp4_flexion	mcp4_abduction	pm4_flexion	md4_flexion	mcp5_flexion	mcp5_abduction	pm5_flexion	md5_flexion
3.810000	-0.024604	-0.289216	0.117838	0.085292	0.058960	0.129353	-0.053810	-0.010258	0.031179	0.101916	0.088528	0.027437	0.146525	0.146525	1.935409	1.304180	0.000000	0.000000	0.000000	0.000000	0.000000	0.000000	0.000000	0.000000	0.000000	0.000000	0.000000	0.000000	0.000000	0.000000	0.000000	0.000000	0.000000	0.000000	0.000000	0.000000	0.000000	0.000000
3.815000	-0.024616	-0.288677	0.117416	0.085490	0.059260	0.128870	-0.053639	-0.010377	0.031098	0.102277	0.088822	0.027437	0.146525	0.146525	1.925522	1.304469	0.000000	0.000000	0.000000	0.000000	0.000000	0.000000	0.000000	0.000000	0.000000	0.000000	0.000000	0.000000	0.000000	0.000000	0.000000	0.000000	0.000000	0.000000	0.000000	0.000000	0.000000	0.000000
3.820000	-0.024628	-0.288142	0.116993	0.085690	0.059558	0.128399	-0.053458	-0.010469	0.031014	0.102631	0.089113	0.027437	0.146525	0.146525	1.915674	1.304754	0.000000	0.000000	0.000000	0.000000	0.000000	0.000000	0.000000	0.000000	0.000000	0.000000	0.000000	0.000000	0.000000	0.000000	0.000000	0.000000	0.000000	0.000000	0.000000	0.000000	0.000000	0.000000
3.825000	-0.024642	-0.287612	0.116569	0.085890	0.059854	0.127941	-0.053267	-0.010535	0.030928	0.102978	0.089402	0.027437	0.146525	0.146525	1.905871	1.305034	0.000000	0.000000	0.000000	0.000000	0.000000	0.000000	0.000000	0.000000	0.000000	0.000000	0.000000	0.000000	0.000000	0.000000	0.000000	0.000000	0.000000	0.000000	0.000000	0.000000	0.000000	0.000000
3.830000	-0.024656	-0.287087	0.116146	0.086090	0.060149	0.127495	-0.053068	-0.010575	0.030839	0.103319	0.089688	0.027437	0.146525	0.146525	1.896119	1.305309	0.000000	0.000000	0.000000	0.000000	0.000000	0.000000	0.000000	0.000000	0.000000	0.000000	0.000000	0.000000	0.000000	0.000000	0.000000	0.000000	0.000000	0.000000	0.000000	0.000000	0.000000	0.000000
3.835000	-0.024672	-0.286567	0.115724	0.086292	0.060441	0.127062	-0.052861	-0.010589	0.030748	0.103652	0.089972	0.027437	0.146525	0.146525	1.886424	1.305579	0.000000	0.000000	0.000000	0.000000	0.000000	0.000000	0.000000	0.000000	0.000000	0.000000	0.000000	0.000000	0.000000	0.000000	0.000000	0.000000	0.000000	0.000000	0.000000	0.000000	0.000000	0.000000
3.840000	-0.024688	-0.286054	0.115303	0.086494	0.060732	0.126642	-0.052646	-0.010578	0.030654	0.103979	0.090253	0.027437	0.146525	0.146525	1.876792	1.305844	0.000000	0.000000	0.000000	0.000000	0.000000	0.000000	0.000000	0.000000	0.000000	0.000000	0.000000	0.000000	0.000000	0.000000	0.000000	0.000000	0.000000	0.000000	0.000000	0.000000	0.000000	0.000000
3.845000	-0.024705	-0.285548	0.114885	0.086698	0.061021	0.126234	-0.052425	-0.010542	0.030557	0.104299	0.090531	0.027437	0.146525	0.146525	1.867228	1.306104	0.000000	0.000000	0.000000	0.000000	0.000000	0.000000	0.000000	0.000000	0.000000	0.000000	0.000000	0.000000	0.000000	0.000000	0.000000	0.000000	0.000000	0.000000	0.000000	0.000000	0.000000	0.000000
3.850000	-0.024723	-0.285049	0.114469	0.086901	0.061308	0.125840	-0.052198	-0.010483	0.030456	0.104612	0.090807	0.027437	0.146525	0.146525	1.857737	1.306359	0.000000	0.000000	0.000000	0.000000	0.000000	0.000000	0.000000	0.000000	0.000000	0.000000	0.000000	0.000000	0.000000	0.000000	0.000000	0.000000	0.000000	0.000000	0.000000	0.000000	0.000000	0.000000
3.855000	-0.024742	-0.284558	0.114056	0.087106	0.061594	0.125458	-0.051966	-0.010400	0.030353	0.104919	0.091080	0.027437	0.146525	0.146525	1.848324	1.306608	0.000000	0.000000	0.000000	0.000000	0.000000	0.000000	0.000000	0.000000	0.000000	0.000000	0.000000	0.000000	0.000000	0.000000	0.000000	0.000000	0.000000	0.000000	0.000000	0.000000	0.000000	0.000000
3.860000	-0.024762	-0.284075	0.113647	0.087311	0.061877	0.125089	-0.051729	-0.010295	0.030246	0.105219	0.091350	0.027437	0.146525	0.146525	1.838994	1.306852	0.000000	0.000000	0.000000	0.000000	0.000000	0.000000	0.000000	0.000000	0.000000	0.000000	0.000000	0.000000	0.000000	0.000000	0.000000	0.000000	0.000000	0.000000	0.000000	0.000000	0.000000	0.000000
3.865000	-0.024783	-0.283601	0.113242	0.087517	0.062158	0.124732	-0.051489	-0.010168	0.030136	0.105513	0.091617	0.027437	0.146525	0.146525	1.829752	1.307090	0.000000	0.000000	0.000000	0.000000	0.000000	0.000000	0.000000	0.000000	0.000000	0.000000	0.000000	0.000000	0.000000	0.000000	0.000000	0.000000	0.000000	0.000000	0.000000	0.000000	0.000000	0.000000
3.870000	-0.024805	-0.283136	0.112841	0.087723	0.062438	0.124387	-0.051245	-0.010020	0.030023	0.105801	0.091882	0.027437	0.146525	0.146525	1.820602	1.307322	0.000000	0.000000	0.000000	0.000000	0.000000	0.000000	0.000000	0.000000	0.000000	0.000000	0.000000	0.000000	0.000000	0.000000	0.000000	0.000000	0.000000	0.000000	0.000000	0.000000	0.000000	0.000000
3.875000	-0.024827	-0.282679	0.112445	0.087930	0.062715	0.124055	-0.050998	-0.009852	0.029906	0.106083	0.092143	0.027437	0.146525	0.146525	1.811549	1.307548	0.000000	0.000000	0.000000	0.000000	0.000000	0.000000	0.000000	0.000000	0.000000	0.000000	0.000000	0.000000	0.000000	0.000000	0.000000	0.000000	0.000000	0.000000	0.000000	0.000000	0.000000	0.000000
3.880000	-0.024850	-0.282233	0.112054	0.088138	0.062991	0.123734	-0.050749	-0.009664	0.029786	0.106358	0.092402	0.027437	0.146525	0.146525	1.802596	1.307768	0.000000	0.000000	0.000000	0.000000	0.000000	0.000000	0.000000	0.000000	0.000000	0.000000	0.000000	0.000000	0.000000	0.000000	0.000000	0.000000	0.000000	0.000000	0.000000	0.000000	0.000000	0.000000
3.885000	-0.024874	-0.281795	0.111669	0.088345	0.063264	0.123424	-0.050499	-0.009458	0.029662	0.106628	0.092657	0.027437	0.146525	0.146525	1.793748	1.307982	0.000000	0.000000	0.000000	0.000000	0.000000	0.000000	0.000000	0.000000	0.000000	0.000000	0.000000	0.000000	0.000000	0.000000	0.000000	0.000000	0.000000	0.000000	0.000000	0.000000	0.000000	0.000000
3.890000	-0.024899	-0.281367	0.111288	0.088553	0.063536	0.123126	-0.050247	-0.009235	0.029536	0.106893	0.092910	0.027437	0.146525	0.146525	1.785008	1.308189	0.000000	0.000000	0.000000	0.000000	0.000000	0.000000	0.000000	0.000000	0.000000	0.000000	0.000000	0.000000	0.000000	0.000000	0.000000	0.000000	0.000000	0.000000	0.000000	0.000000	0.000000	0.000000
3.895000	-0.024924	-0.280949	0.110914	0.088761	0.063805	0.122839	-0.049995	-0.008995	0.029405	0.107152	0.093159	0.027437	0.146525	0.146525	1.776380	1.308390	0.000000	0.000000	0.000000	0.000000	0.000000	0.000000	0.000000	0.000000	0.000000	0.000000	0.000000	0.000000	0.000000	0.000000	0.000000	0.000000	0.000000	0.000000	0.000000	0.000000	0.000000	0.000000
3.900000	-0.024950	-0.280540	0.110545	0.088969	0.064073	0.122562	-0.049742	-0.008740	0.029272	0.107405	0.093405	0.027437	0.146525	0.146525	1.767866	1.308585	0.000000	0.000000	0.000000	0.000000	0.000000	0.000000	0.000000	0.000000	0.000000	0.000000	0.000000	0.000000	0.000000	0.000000	0.000000	0.000000	0.000000	0.000000	0.000000	0.000000	0.000000	0.000000
3.905000	-0.024976	-0.280141	0.110183	0.089177	0.064338	0.122296	-0.049490	-0.008469	0.029135	0.107654	0.093649	0.027437	0.146525	0.146525	1.759470	1.308773	0.000000	0.000000	0.000000	0.000000	0.000000	0.000000	0.000000	0.000000	0.000000	0.000000	0.000000	0.000000	0.000000	0.000000	0.000000	0.000000	0.000000	0.000000	0.000000	0.000000	0.000000	0.000000
3.910000	-0.025003	-0.279752	0.109826	0.089385	0.064601	0.122039	-0.049238	-0.008185	0.028995	0.107897	0.093889	0.027437	0.146525	0.146525	1.751194	1.308955	0.000000	0.000000	0.000000	0.000000	0.000000	0.000000	0.000000	0.000000	0.000000	0.000000	0.000000	0.000000	0.000000	0.000000	0.000000	0.000000	0.000000	0.000000	0.000000	0.000000	0.000000	0.000000
3.915000	-0.025031	-0.279372	0.109476	0.089592	0.064862	0.121792	-0.048987	-0.007888	0.028852	0.108135	0.094126	0.027437	0.146525	0.146525	1.743042	1.309129	0.000000	0.000000	0.000000	0.000000	0.000000	0.000000	0.000000	0.000000	0.000000	0.000000	0.000000	0.000000	0.000000	0.000000	0.000000	0.000000	0.000000	0.000000	0.000000	0.000000	0.000000	0.000000
3.920000	-0.025058	-0.279002	0.109132	0.089799	0.065121	0.121553	-0.048738	-0.007579	0.028706	0.108369	0.094360	0.027437	0.146525	0.146525	1.735015	1.309297	0.000000	0.000000	0.000000	0.000000	0.000000	0.000000	0.000000	0.000000	0.000000	0.000000	0.000000	0.000000	0.000000	0.000000	0.000000	0.000000	0.000000	0.000000	0.000000	0.000000	0.000000	0.000000
3.925000	-0.025086	-0.278641	0.108794	0.090006	0.065378	0.121324	-0.048490	-0.007259	0.028557	0.108598	0.094590	0.027437	0.146525	0.146525	1.727115	1.309458	0.000000	0.000000	0.000000	0.000000	0.000000	0.000000	0.000000	0.000000	0.000000	0.000000	0.000000	0.000000	0.000000	0.000000	0.000000	0.000000	0.000000	0.000000	0.000000	0.000000	0.000000	0.000000
3.930000	-0.025115	-0.278289	0.108463	0.090212	0.065632	0.121102	-0.048244	-0.006929	0.028406	0.108822	0.094818	0.027437	0.146525	0.146525	1.719345	1.309612	0.000000	0.000000	0.000000	0.000000	0.000000	0.000000	0.000000	0.000000	0.000000	0.000000	0.000000	0.000000	0.000000	0.000000	0.000000	0.000000	0.000000	0.000000	0.000000	0.000000	0.000000	0.000000
3.935000	-0.025143	-0.277946	0.108138	0.090418	0.065885	0.120888	-0.048000	-0.006589	0.028251	0.109043	0.095043	0.027437	0.146525	0.146525	1.711705	1.309759	0.000000	0.000000	0.000000	0.000000	0.000000	0.000000	0.000000	0.000000	0.000000	0.000000	0.000000	0.000000	0.000000	0.000000	0.000000	0.000000	0.000000	0.000000	0.000000	0.000000	0.000000	0.000000
3.940000	-0.025172	-0.277611	0.107818	0.090623	0.066135	0.120682	-0.047758	-0.006241	0.028094	0.109259	0.095264	0.027437	0.146525	0.146525	1.704198	1.309899	0.000000	0.000000	0.000000	0.000000	0.000000	0.000000	0.000000	0.000000	0.000000	0.000000	0.000000	0.000000	0.000000	0.000000	0.000000	0.000000	0.000000	0.000000	0.000000	0.000000	0.000000	0.000000
3.945000	-0.025201	-0.277286	0.107505	0.090827	0.066383	0.120483	-0.047519	-0.005885	0.027934	0.109471	0.095483	0.027437	0.146525	0.146525	1.696824	1.310032	0.000000	0.000000	0.000000	0.000000	0.000000	0.000000	0.000000	0.000000	0.000000	0.000000	0.000000	0.000000	0.000000	0.000000	0.000000	0.000000	0.000000	0.000000	0.000000	0.000000	0.000000	0.000000
3.950000	-0.025230	-0.276968	0.107199	0.091030	0.066628	0.120291	-0.047283	-0.005523	0.027772	0.109679	0.095698	0.027437	0.146525	0.146525	1.689585	1.310158	0.000000	0.000000	0.000000	0.000000	0.000000	0.000000	0.000000	0.000000	0.000000	0.000000	0.000000	0.000000	0.000000	0.000000	0.000000	0.000000	0.000000	0.000000	0.000000	0.000000	0.000000	0.000000
3.955000	-0.025259	-0.276659	0.106898	0.091232	0.066871	0.120104	-0.047050	-0.005154	0.027608	0.109884	0.095910	0.027437	0.146525	0.146525	1.682481	1.310276	0.000000	0.000000	0.000000	0.000000	0.000000	0.000000	0.000000	0.000000	0.000000	0.000000	0.000000	0.000000	0.000000	0.000000	0.000000	0.000000	0.000000	0.000000	0.000000	0.000000	0.000000	0.000000
